<svg width="108" height="19" viewBox="0 0 108 19" fill="none" xmlns="http://www.w3.org/2000/svg">
<path d="M0.84 15.984L1.488 14.712C2.224 15.352 3.048 15.832 3.96 16.152C4.888 16.456 5.816 16.616 6.744 16.632C7.672 16.632 8.52 16.496 9.288 16.224C10.072 15.952 10.704 15.552 11.184 15.024C11.664 14.48 11.904 13.824 11.904 13.056C11.904 12.08 11.512 11.328 10.728 10.8C9.96 10.272 8.888 10.008 7.512 10.008H3.912V8.568H7.416C8.6 8.568 9.52 8.32 10.176 7.824C10.848 7.312 11.184 6.608 11.184 5.712C11.184 5.072 10.992 4.528 10.608 4.08C10.24 3.616 9.728 3.264 9.072 3.024C8.432 2.768 7.712 2.632 6.912 2.616C6.112 2.584 5.28 2.688 4.416 2.928C3.568 3.152 2.744 3.512 1.944 4.008L1.368 2.544C2.36 1.952 3.392 1.544 4.464 1.32C5.536 1.08 6.576 0.999999 7.584 1.08C8.592 1.16 9.496 1.392 10.296 1.776C11.112 2.16 11.76 2.664 12.24 3.288C12.72 3.912 12.96 4.656 12.96 5.52C12.96 6.32 12.752 7.024 12.336 7.632C11.936 8.24 11.368 8.712 10.632 9.048C9.912 9.368 9.056 9.528 8.064 9.528L8.16 9C9.28 9 10.248 9.176 11.064 9.528C11.896 9.88 12.536 10.384 12.984 11.04C13.448 11.68 13.68 12.432 13.68 13.296C13.68 14.112 13.472 14.84 13.056 15.48C12.656 16.104 12.096 16.632 11.376 17.064C10.672 17.48 9.88 17.784 9 17.976C8.12 18.152 7.2 18.2 6.24 18.12C5.28 18.04 4.336 17.832 3.408 17.496C2.48 17.144 1.624 16.64 0.84 15.984ZM25.5058 18V15.216L25.4338 14.76V10.104C25.4338 9.032 25.1298 8.208 24.5218 7.632C23.9298 7.056 23.0418 6.768 21.8578 6.768C21.0418 6.768 20.2658 6.904 19.5298 7.176C18.7938 7.448 18.1698 7.808 17.6578 8.256L16.8898 6.984C17.5298 6.44 18.2978 6.024 19.1938 5.736C20.0898 5.432 21.0338 5.28 22.0258 5.28C23.6578 5.28 24.9138 5.688 25.7938 6.504C26.6898 7.304 27.1378 8.528 27.1378 10.176V18H25.5058ZM21.1618 18.12C20.2178 18.12 19.3938 17.968 18.6898 17.664C18.0018 17.344 17.4738 16.912 17.1058 16.368C16.7378 15.808 16.5538 15.168 16.5538 14.448C16.5538 13.792 16.7058 13.2 17.0098 12.672C17.3298 12.128 17.8418 11.696 18.5458 11.376C19.2658 11.04 20.2258 10.872 21.4258 10.872H25.7698V12.144H21.4738C20.2578 12.144 19.4098 12.36 18.9298 12.792C18.4658 13.224 18.2338 13.76 18.2338 14.4C18.2338 15.12 18.5138 15.696 19.0738 16.128C19.6338 16.56 20.4178 16.776 21.4258 16.776C22.3858 16.776 23.2098 16.56 23.8978 16.128C24.6018 15.68 25.1138 15.04 25.4338 14.208L25.8178 15.384C25.4978 16.216 24.9378 16.88 24.1378 17.376C23.3538 17.872 22.3618 18.12 21.1618 18.12ZM40.914 18L35.73 11.76L37.146 10.92L42.93 18H40.914ZM31.674 18V5.4H33.378V18H31.674ZM32.85 12.384V10.92H36.906V12.384H32.85ZM37.29 11.88L35.706 11.64L40.722 5.4H42.57L37.29 11.88ZM53.2089 18V15.216L53.1369 14.76V10.104C53.1369 9.032 52.8329 8.208 52.2249 7.632C51.6329 7.056 50.7449 6.768 49.5609 6.768C48.7449 6.768 47.9689 6.904 47.2329 7.176C46.4969 7.448 45.8729 7.808 45.3609 8.256L44.5929 6.984C45.2329 6.44 46.0009 6.024 46.8969 5.736C47.7929 5.432 48.7369 5.28 49.7289 5.28C51.3609 5.28 52.6169 5.688 53.4969 6.504C54.3929 7.304 54.8409 8.528 54.8409 10.176V18H53.2089ZM48.8649 18.12C47.9209 18.12 47.0969 17.968 46.3929 17.664C45.7049 17.344 45.1769 16.912 44.8089 16.368C44.4409 15.808 44.2569 15.168 44.2569 14.448C44.2569 13.792 44.4089 13.2 44.7129 12.672C45.0329 12.128 45.5449 11.696 46.2489 11.376C46.9689 11.04 47.9289 10.872 49.1289 10.872H53.4729V12.144H49.1769C47.9609 12.144 47.1129 12.36 46.6329 12.792C46.1689 13.224 45.9369 13.76 45.9369 14.4C45.9369 15.12 46.2169 15.696 46.7769 16.128C47.3369 16.56 48.1209 16.776 49.1289 16.776C50.0889 16.776 50.9129 16.56 51.6009 16.128C52.3049 15.68 52.8169 15.04 53.1369 14.208L53.5209 15.384C53.2009 16.216 52.6409 16.88 51.8409 17.376C51.0569 17.872 50.0649 18.12 48.8649 18.12ZM62.5033 18.144C63.5433 18.144 64.4793 17.984 65.3113 17.664C66.1593 17.344 66.8313 16.904 67.3273 16.344C67.8233 15.768 68.0713 15.104 68.0713 14.352C68.0713 13.392 67.6633 12.632 66.8473 12.072C66.0473 11.512 64.9273 11.232 63.4873 11.232L63.4153 11.688C64.2313 11.688 64.9593 11.56 65.5993 11.304C66.2393 11.048 66.7513 10.688 67.1353 10.224C67.5193 9.76 67.7113 9.216 67.7113 8.592C67.7113 7.888 67.4713 7.288 66.9913 6.792C66.5113 6.28 65.8633 5.888 65.0473 5.616C64.2473 5.344 63.3433 5.224 62.3353 5.256C61.5993 5.256 60.8633 5.36 60.1273 5.568C59.4073 5.76 58.6793 6.048 57.9433 6.432L58.4233 7.752C59.0793 7.416 59.7433 7.168 60.4153 7.008C61.0873 6.832 61.7353 6.736 62.3593 6.72C63.0473 6.72 63.6633 6.8 64.2073 6.96C64.7513 7.12 65.1753 7.36 65.4793 7.68C65.7993 8 65.9593 8.384 65.9593 8.832C65.9593 9.248 65.8233 9.608 65.5513 9.912C65.2953 10.216 64.9273 10.448 64.4473 10.608C63.9673 10.768 63.4153 10.848 62.7913 10.848H60.7513V12.096H62.9113C63.9673 12.096 64.7993 12.288 65.4073 12.672C66.0153 13.04 66.3193 13.56 66.3193 14.232C66.3193 14.696 66.1593 15.112 65.8393 15.48C65.5193 15.848 65.0713 16.136 64.4953 16.344C63.9193 16.552 63.2393 16.664 62.4553 16.68C61.6713 16.68 60.8793 16.568 60.0793 16.344C59.2793 16.104 58.5753 15.76 57.9673 15.312L57.4153 16.584C58.1033 17.112 58.8953 17.504 59.7913 17.76C60.6873 18.016 61.5913 18.144 62.5033 18.144ZM79.7636 18V15.216L79.6916 14.76V10.104C79.6916 9.032 79.3876 8.208 78.7796 7.632C78.1876 7.056 77.2996 6.768 76.1156 6.768C75.2996 6.768 74.5236 6.904 73.7876 7.176C73.0516 7.448 72.4276 7.808 71.9156 8.256L71.1476 6.984C71.7876 6.44 72.5556 6.024 73.4516 5.736C74.3476 5.432 75.2916 5.28 76.2836 5.28C77.9156 5.28 79.1716 5.688 80.0516 6.504C80.9476 7.304 81.3956 8.528 81.3956 10.176V18H79.7636ZM75.4196 18.12C74.4756 18.12 73.6516 17.968 72.9476 17.664C72.2596 17.344 71.7316 16.912 71.3636 16.368C70.9956 15.808 70.8116 15.168 70.8116 14.448C70.8116 13.792 70.9636 13.2 71.2676 12.672C71.5876 12.128 72.0996 11.696 72.8036 11.376C73.5236 11.04 74.4836 10.872 75.6836 10.872H80.0276V12.144H75.7316C74.5156 12.144 73.6676 12.36 73.1876 12.792C72.7236 13.224 72.4916 13.76 72.4916 14.4C72.4916 15.12 72.7716 15.696 73.3316 16.128C73.8916 16.56 74.6756 16.776 75.6836 16.776C76.6436 16.776 77.4676 16.56 78.1556 16.128C78.8596 15.68 79.3716 15.04 79.6916 14.208L80.0756 15.384C79.7556 16.216 79.1956 16.88 78.3956 17.376C77.6116 17.872 76.6196 18.12 75.4196 18.12ZM88.3318 18V6.432L88.7638 6.888H83.5558V5.4H94.8118V6.888H89.6038L90.0358 6.432V18H88.3318ZM102.7 9.84C104.284 9.856 105.484 10.208 106.3 10.896C107.132 11.584 107.548 12.576 107.548 13.872C107.548 15.216 107.1 16.248 106.204 16.968C105.324 17.688 104.044 18.04 102.364 18.024L97.2756 18V5.4H98.9796V9.792L102.7 9.84ZM102.268 16.728C103.436 16.744 104.316 16.512 104.908 16.032C105.516 15.536 105.82 14.816 105.82 13.872C105.82 12.928 105.524 12.24 104.932 11.808C104.34 11.36 103.452 11.128 102.268 11.112L98.9796 11.064V16.68L102.268 16.728Z" fill="white"/>
</svg>
